{
  "accessors": [
    {
      "bufferView": 2,
      "componentType": 5126,
      "count": 3744,
      "max": [
        211.90605163574219,
        345.7454833984375,
        373.66162109375
      ],
      "min": [
        -191.22099304199219,
        -319.24136352539062,
        -0.97473400831222534
      ],
      "type": "VEC3"
    },
    {
      "bufferView": 2,
      "byteOffset": 44928,
      "componentType": 5126,
      "count": 3744,
      "max": [
        0.99999445676803589,
        1,
        0.99999988079071045
      ],
      "min": [
        -0.99999451637268066,
        -1,
        -0.9999995231628418
      ],
      "type": "VEC3"
    },
    {
      "bufferView": 3,
      "componentType": 5126,
      "count": 3744,
      "max": [
        1,
        0.99957197904586792,
        0.99987190961837769,
        1
      ],
      "min": [
        -1,
        -0.99975830316543579,
        -0.99998009204864502,
        -1
      ],
      "type": "VEC4"
    },
    {
      "bufferView": 1,
      "componentType": 5126,
      "count": 3744,
      "max": [
        0.97149002552032471,
        0.97705799341201782
      ],
      "min": [
        0.028994999825954437,
        0.025296999141573906
      ],
      "type": "VEC2"
    },
    {
      "bufferView": 0,
      "componentType": 5125,
      "count": 17814,
      "max": [
        3743
      ],
      "min": [
        0
      ],
      "type": "SCALAR"
    },
    {
      "bufferView": 2,
      "byteOffset": 89856,
      "componentType": 5126,
      "count": 4,
      "max": [
        419.05792236328125,
        480.63861083984375,
        0
      ],
      "min": [
        -392.7550048828125,
        -480.63861083984375,
        0
      ],
      "type": "VEC3"
    },
    {
      "bufferView": 2,
      "byteOffset": 89904,
      "componentType": 5126,
      "count": 4,
      "max": [
        0,
        -0,
        1
      ],
      "min": [
        0,
        -0,
        1
      ],
      "type": "VEC3"
    },
    {
      "bufferView": 3,
      "byteOffset": 59904,
      "componentType": 5126,
      "count": 4,
      "max": [
        1,
        0,
        0,
        1
      ],
      "min": [
        1,
        0,
        0,
        1
      ],
      "type": "VEC4"
    },
    {
      "bufferView": 1,
      "byteOffset": 29952,
      "componentType": 5126,
      "count": 4,
      "max": [
        0.9217829704284668,
        0.99067997932434082
      ],
      "min": [
        0.096657000482082367,
        0.013638000003993511
      ],
      "type": "VEC2"
    },
    {
      "bufferView": 0,
      "byteOffset": 71256,
      "componentType": 5125,
      "count": 6,
      "max": [
        3
      ],
      "min": [
        0
      ],
      "type": "SCALAR"
    },
    {
      "bufferView": 2,
      "byteOffset": 89952,
      "componentType": 5126,
      "count": 1518,
      "max": [
        152.65972900390625,
        246.80709838867188,
        250.7470703125
      ],
      "min": [
        -152.65994262695312,
        -163.09568786621094,
        55.085765838623047
      ],
      "type": "VEC3"
    },
    {
      "bufferView": 2,
      "byteOffset": 108168,
      "componentType": 5126,
      "count": 1518,
      "max": [
        1,
        1,
        1
      ],
      "min": [
        -1,
        -0.99998325109481812,
        -1
      ],
      "type": "VEC3"
    },
    {
      "bufferView": 3,
      "byteOffset": 59968,
      "componentType": 5126,
      "count": 1518,
      "max": [
        1,
        0.99999922513961792,
        0.99998319149017334,
        1
      ],
      "min": [
        -1,
        -0.99472105503082275,
        -0.99997550249099731,
        -1
      ],
      "type": "VEC4"
    },
    {
      "bufferView": 1,
      "byteOffset": 29984,
      "componentType": 5126,
      "count": 1518,
      "max": [
        0.94967597723007202,
        0.96759200096130371
      ],
      "min": [
        0.010204000398516655,
        0.021849000826478004
      ],
      "type": "VEC2"
    },
    {
      "bufferView": 0,
      "byteOffset": 71280,
      "componentType": 5125,
      "count": 6744,
      "max": [
        1517
      ],
      "min": [
        0
      ],
      "type": "SCALAR"
    },
    {
      "bufferView": 2,
      "byteOffset": 126384,
      "componentType": 5126,
      "count": 146,
      "max": [
        153.28758239746094,
        228.1385498046875,
        345.71524047851562
      ],
      "min": [
        -153.28758239746094,
        -134.83203125,
        216.74916076660156
      ],
      "type": "VEC3"
    },
    {
      "bufferView": 2,
      "byteOffset": 128136,
      "componentType": 5126,
      "count": 146,
      "max": [
        0.99194890260696411,
        0.87616521120071411,
        0.63347399234771729
      ],
      "min": [
        -0.99194878339767456,
        -0.88052386045455933,
        0.12631098926067352
      ],
      "type": "VEC3"
    },
    {
      "bufferView": 3,
      "byteOffset": 84256,
      "componentType": 5126,
      "count": 146,
      "max": [
        -0.12661087512969971,
        0.15427032113075256,
        0.9906805157661438,
        1
      ],
      "min": [
        -1,
        -0.15422379970550537,
        -0.99068039655685425,
        1
      ],
      "type": "VEC4"
    },
    {
      "bufferView": 1,
      "byteOffset": 42128,
      "componentType": 5126,
      "count": 146,
      "max": [
        0.95410698652267456,
        0.90452802181243896
      ],
      "min": [
        0.59370499849319458,
        0.54904299974441528
      ],
      "type": "VEC2"
    },
    {
      "bufferView": 0,
      "byteOffset": 98256,
      "componentType": 5125,
      "count": 450,
      "max": [
        145
      ],
      "min": [
        0
      ],
      "type": "SCALAR"
    }
  ],
  "asset": {
    "extras": {
      "author": "Slava Z. (https://sketchfab.com/slava)",
      "license": "CC-BY-4.0 (http://creativecommons.org/licenses/by/4.0/)",
      "source": "https://sketchfab.com/models/885d9f60b3a9429bb4077cfac5653cf9",
      "title": "Pony Cartoon"
    },
    "generator": "Sketchfab-3.19.6",
    "version": "2.0"
  },
  "bufferViews": [
    {
      "buffer": 0,
      "byteLength": 100056,
      "byteOffset": 0,
      "name": "floatBufferViews",
      "target": 34963
    },
    {
      "buffer": 0,
      "byteLength": 43296,
      "byteOffset": 100056,
      "byteStride": 8,
      "name": "floatBufferViews",
      "target": 34962
    },
    {
      "buffer": 0,
      "byteLength": 129888,
      "byteOffset": 143352,
      "byteStride": 12,
      "name": "floatBufferViews",
      "target": 34962
    },
    {
      "buffer": 0,
      "byteLength": 86592,
      "byteOffset": 273240,
      "byteStride": 16,
      "name": "floatBufferViews",
      "target": 34962
    }
  ],
  "buffers": [
    {
      "byteLength": 359832,
      "uri": "scene.bin"
    }
  ],
  "images": [
    {
      "uri": "textures/Windows_SG_baseColor.jpeg"
    },
    {
      "uri": "textures/Windows_SG_metallicRoughness.png"
    },
    {
      "uri": "textures/Windows_SG_normal.png"
    },
    {
      "uri": "textures/Ground_SG_baseColor.png"
    },
    {
      "uri": "textures/Interior_SG_baseColor.jpg"
    },
    {
      "uri": "textures/Interior_SG_normal.jpg"
    },
    {
      "uri": "textures/Interior_SG_metallicRoughness.png"
    },
    {
      "uri": "textures/Body_SG1_baseColor.jpeg"
    },
    {
      "uri": "textures/Body_SG1_normal.jpg"
    },
    {
      "uri": "textures/Body_SG1_metallicRoughness.png"
    },
    {
      "uri": "textures/Body_SG1_emissive.jpeg"
    }
  ],
  "materials": [
    {
      "doubleSided": true,
      "emissiveFactor": [
        1,
        1,
        1
      ],
      "emissiveTexture": {
        "index": 10,
        "texCoord": 0
      },
      "name": "Body_SG1",
      "normalTexture": {
        "index": 8,
        "scale": 1,
        "texCoord": 0
      },
      "pbrMetallicRoughness": {
        "baseColorFactor": [
          1,
          1,
          1,
          1
        ],
        "baseColorTexture": {
          "index": 7,
          "texCoord": 0
        },
        "metallicFactor": 1,
        "metallicRoughnessTexture": {
          "index": 9,
          "texCoord": 0
        },
        "roughnessFactor": 1
      }
    },
    {
      "alphaMode": "BLEND",
      "doubleSided": true,
      "name": "Ground_SG",
      "pbrMetallicRoughness": {
        "baseColorFactor": [
          0,
          0,
          0,
          1
        ],
        "baseColorTexture": {
          "index": 3,
          "texCoord": 0
        },
        "metallicFactor": 0,
        "roughnessFactor": 1
      }
    },
    {
      "doubleSided": true,
      "name": "Interior_SG",
      "normalTexture": {
        "index": 5,
        "scale": 1,
        "texCoord": 0
      },
      "pbrMetallicRoughness": {
        "baseColorFactor": [
          1,
          1,
          1,
          1
        ],
        "baseColorTexture": {
          "index": 4,
          "texCoord": 0
        },
        "metallicFactor": 1,
        "metallicRoughnessTexture": {
          "index": 6,
          "texCoord": 0
        },
        "roughnessFactor": 1
      }
    },
    {
      "alphaMode": "BLEND",
      "doubleSided": true,
      "name": "Windows_SG",
      "normalTexture": {
        "index": 2,
        "scale": 1,
        "texCoord": 0
      },
      "pbrMetallicRoughness": {
        "baseColorFactor": [
          1,
          1,
          1,
          0.72999999999999998
        ],
        "baseColorTexture": {
          "index": 0,
          "texCoord": 0
        },
        "metallicFactor": 0,
        "metallicRoughnessTexture": {
          "index": 1,
          "texCoord": 0
        },
        "roughnessFactor": 1
      }
    }
  ],
  "meshes": [
    {
      "primitives": [
        {
          "attributes": {
            "NORMAL": 1,
            "POSITION": 0,
            "TANGENT": 2,
            "TEXCOORD_0": 3
          },
          "indices": 4,
          "material": 0,
          "mode": 4
        }
      ]
    },
    {
      "primitives": [
        {
          "attributes": {
            "NORMAL": 6,
            "POSITION": 5,
            "TANGENT": 7,
            "TEXCOORD_0": 8
          },
          "indices": 9,
          "material": 1,
          "mode": 4
        }
      ]
    },
    {
      "primitives": [
        {
          "attributes": {
            "NORMAL": 11,
            "POSITION": 10,
            "TANGENT": 12,
            "TEXCOORD_0": 13
          },
          "indices": 14,
          "material": 2,
          "mode": 4
        }
      ]
    },
    {
      "primitives": [
        {
          "attributes": {
            "NORMAL": 16,
            "POSITION": 15,
            "TANGENT": 17,
            "TEXCOORD_0": 18
          },
          "indices": 19,
          "material": 3,
          "mode": 4
        }
      ]
    }
  ],
  "nodes": [
    {
      "children": [
        1
      ],
      "name": "RootNode (gltf orientation matrix)",
      "rotation": [
        -0.70710678118654746,
        -0,
        -0,
        0.70710678118654757
      ]
    },
    {
      "children": [
        2
      ],
      "name": "RootNode (model correction matrix)"
    },
    {
      "children": [
        3,
        4,
        5,
        6
      ],
      "name": "Pony_cartoon.obj.cleaner"
    },
    {
      "mesh": 0,
      "name": ""
    },
    {
      "mesh": 1,
      "name": ""
    },
    {
      "mesh": 2,
      "name": ""
    },
    {
      "mesh": 3,
      "name": ""
    }
  ],
  "samplers": [
    {
      "magFilter": 9729,
      "minFilter": 9987,
      "wrapS": 10497,
      "wrapT": 10497
    }
  ],
  "scene": 0,
  "scenes": [
    {
      "name": "OSG_Scene",
      "nodes": [
        0
      ]
    }
  ],
  "textures": [
    {
      "sampler": 0,
      "source": 0
    },
    {
      "sampler": 0,
      "source": 1
    },
    {
      "sampler": 0,
      "source": 2
    },
    {
      "sampler": 0,
      "source": 3
    },
    {
      "sampler": 0,
      "source": 4
    },
    {
      "sampler": 0,
      "source": 5
    },
    {
      "sampler": 0,
      "source": 6
    },
    {
      "sampler": 0,
      "source": 7
    },
    {
      "sampler": 0,
      "source": 8
    },
    {
      "sampler": 0,
      "source": 9
    },
    {
      "sampler": 0,
      "source": 10
    }
  ]
}

